<?xml version="1.0" standalone="no"?><!DOCTYPE svg PUBLIC "-//W3C//DTD SVG 1.1//EN" "http://www.w3.org/Graphics/SVG/1.1/DTD/svg11.dtd"><svg t="1579318933388" class="icon" viewBox="0 0 1024 1024" version="1.1" xmlns="http://www.w3.org/2000/svg" p-id="2097" xmlns:xlink="http://www.w3.org/1999/xlink" width="200" height="200"><defs><style type="text/css"></style></defs><path d="M583.168 812.032c-16.896 5.632-31.232-2.56-31.232-2.56l-171.52-137.728H223.744c-10.24 0-18.944-8.704-18.944-18.944V371.712c0-10.24 8.704-18.944 18.944-18.944h156.672l184.832-148.48s9.728-5.12 23.04 0c13.824 5.12 13.824 19.968 13.824 19.968v567.808c0-0.512-2.048 14.336-18.944 19.968z m254.976-273.92H698.368c-14.336 0-26.112-11.776-26.112-26.112s11.776-26.112 26.112-26.112h139.776c14.336 0 26.112 11.776 26.112 26.112s-11.776 26.112-26.112 26.112z m-18.432 276.992c-4.608 0-9.216-1.024-12.8-3.584L685.568 742.4c-12.288-7.168-16.896-23.04-9.728-35.84 7.168-12.288 23.04-16.896 35.84-9.728l121.344 69.12c12.288 7.168 16.896 23.04 9.728 35.84-4.608 8.704-13.312 13.312-23.04 13.312zM698.368 330.24c-14.336 0-26.112-11.776-26.112-26.112 0-9.216 5.12-17.92 13.312-22.528l121.344-69.12c12.8-7.168 28.672-2.56 35.328 10.24 6.656 12.288 2.56 28.16-9.728 35.328l-121.344 69.12c-3.584 2.048-8.192 3.072-12.8 3.072z" fill="#2C2C2C" p-id="2098"></path></svg>