<?xml version="1.0" standalone="no"?><!DOCTYPE svg PUBLIC "-//W3C//DTD SVG 1.1//EN" "http://www.w3.org/Graphics/SVG/1.1/DTD/svg11.dtd"><svg t="1562039669749" class="icon" viewBox="0 0 1271 1024" version="1.1" xmlns="http://www.w3.org/2000/svg" p-id="4449" xmlns:xlink="http://www.w3.org/1999/xlink" width="248.2421875" height="200"><defs><style type="text/css"></style></defs><path d="M95.161379 585.339586c-26.341517 0-47.774897 20.48-47.774896 45.726897 0 25.211586 21.433379 45.726897 47.774896 45.726896 26.376828 0 47.810207-20.51531 47.810207-45.726896 0-25.246897-21.433379-45.726897-47.810207-45.726897z m181.636414-73.198345c-21.080276 0-38.241103 16.41931-38.241103 36.616828 0 20.126897 17.090207 36.475586 38.241103 36.581517 21.115586 0 38.276414-16.41931 38.276414-36.581517 0-20.126897-17.090207-36.510897-38.276414-36.616828zM190.781793 310.942897c-36.934621 0-66.913103 28.742621-66.913103 64.017655 0 35.310345 30.013793 64.052966 66.913103 64.052965s66.913103-28.742621 66.913104-64.052965-30.013793-64.017655-66.913104-64.017655zM229.022897 91.453793c26.341517 0 47.774897-20.51531 47.774896-45.726896S255.399724 0 229.022897 0C202.681379 0 181.21269 20.51531 181.21269 45.726897c0 25.246897 21.433379 45.726897 47.810207 45.726896z m850.838069 73.163035c21.080276 0 38.241103-16.41931 38.241103-36.581518 0-20.126897-17.054897-36.475586-38.241103-36.581517-21.080276 0-38.241103 16.41931-38.241104 36.581517 0 20.126897 17.090207 36.475586 38.241104 36.581518z m-296.395035 91.453793c36.934621 0 66.948414-28.70731 66.948414-64.017655s-30.013793-64.017655-66.913104-64.017656-66.913103 28.70731-66.913103 64.017656 30.013793 64.017655 66.913103 64.017655z m-277.186207 219.489103c-31.77931 0.141241-57.449931 24.717241-57.37931 54.907586-0.070621 30.190345 25.6 54.731034 57.344 54.872276 31.638069 0 57.37931-24.646621 57.37931-54.872276 0.070621-30.225655-25.6-54.731034-57.37931-54.872276z m0-310.942896c-31.77931 0.141241-57.449931 24.681931-57.37931 54.872275-0.070621 30.225655 25.6 54.766345 57.344 54.907587 31.638069 0 57.37931-24.646621 57.37931-54.907587 0.070621-30.190345-25.6-54.731034-57.37931-54.872275z m487.529931 475.595034c-36.89931 0-66.877793 28.70731-66.877793 64.017655s30.013793 64.017655 66.877793 64.017655c36.89931 0 66.913103-28.70731 66.913104-64.017655s-30.013793-64.017655-66.913104-64.017655z m143.395311-237.815172c-31.77931 0.141241-57.37931 24.717241-57.344 54.872276-0.03531 30.190345 25.6 54.731034 57.344 54.872275 31.638069 0 57.37931-24.61131 57.37931-54.872275 0.070621-30.190345-25.6-54.731034-57.37931-54.872276z m-277.221518-18.255449c-26.341517 0-47.810207 20.48-47.810207 45.691587 0 25.246897 21.46869 45.762207 47.810207 45.762206 26.341517 0 47.774897-20.51531 47.774897-45.762206 0-25.211586-21.433379-45.691586-47.774897-45.691587zM678.311724 731.630345c-21.115586 0-38.276414 16.41931-38.276414 36.581517 0 20.126897 17.090207 36.475586 38.276414 36.581517 21.080276 0 38.241103-16.41931 38.241104-36.581517 0-20.126897-17.090207-36.510897-38.241104-36.581517z m76.482207-164.652138c21.186207 0.105931 38.276414 16.454621 38.241103 36.616827 0 20.126897-17.160828 36.581517-38.241103 36.581518-21.186207-0.105931-38.276414-16.454621-38.241103-36.581518 0-20.197517 17.160828-36.616828 38.241103-36.616827zM933.499586 1024c-132.519724 0-224.997517-52.612414-231.282758-56.35531-383.223172-234.919724-623.262897-5.473103-633.326345 4.413793-14.689103 14.477241-38.841379 14.865655-54.024828 0.918069a35.451586 35.451586 0 0 1-1.094621-51.623724c2.824828-2.824828 292.122483-283.61269 729.01738-15.677794 7.980138 4.590345 217.088 121.644138 450.383448-41.065931 8.15669-5.720276 18.432-8.121379 28.460138-6.603034 10.028138 1.518345 18.996966 6.779586 24.964414 14.583172 12.429241 16.313379 8.686345 39.194483-8.403862 51.12938C1127.953655 1000.589241 1021.881379 1024 933.499586 1024z" fill="#707070" p-id="4450"></path></svg>