<?xml version="1.0" standalone="no"?><!DOCTYPE svg PUBLIC "-//W3C//DTD SVG 1.1//EN" "http://www.w3.org/Graphics/SVG/1.1/DTD/svg11.dtd"><svg t="1562039483294" class="icon" viewBox="0 0 1024 1024" version="1.1" xmlns="http://www.w3.org/2000/svg" p-id="1890" xmlns:xlink="http://www.w3.org/1999/xlink" width="200" height="200"><defs><style type="text/css"></style></defs><path d="M833.172 467.555C783.209 387.419 734.067 322.01 732 319.266a30.699 30.699 0 0 0-49.045 0c-2.069 2.746-51.21 68.154-101.173 148.289-70.178 112.56-104.293 192.65-104.293 244.851 0 61.432 23.923 119.188 67.362 162.627 43.439 43.439 101.194 67.361 162.626 67.361s119.188-23.922 162.626-67.36c43.44-43.44 67.362-101.196 67.362-162.628 0-52.2-34.115-132.292-104.293-244.851zM707.477 880.996c-92.961 0-168.59-75.628-168.59-168.59 0-22.378 12.312-79.68 94.768-212.002 27.31-43.825 54.858-83.768 73.824-110.446 18.9 26.584 46.33 66.355 73.592 110.08 82.654 132.57 94.996 189.959 94.996 212.368 0 92.962-75.629 168.59-168.59 168.59z" p-id="1891"></path><path d="M665.669 794.54c-31.045-15.842-50.33-47.314-50.33-82.134 0-28.793 13.097-55.408 35.933-73.017 8.95-6.902 10.612-19.754 3.71-28.704s-19.754-10.612-28.705-3.71c-32.965 25.42-51.87 63.85-51.87 105.431 0 50.282 27.84 95.723 72.656 118.593a20.376 20.376 0 0 0 9.286 2.24c7.446 0 14.63-4.079 18.246-11.167 5.138-10.068 1.142-22.395-8.926-27.532z" p-id="1892"></path><path d="M516.636 904.664c-30.048 10.935-61.66 16.48-93.961 16.48-151.494 0-274.743-123.25-274.743-274.743 0-23.342 7.771-67.93 44.791-147.794 24.768-53.43 59.44-116.002 103.052-185.978 48.955-78.547 98.384-148.963 126.898-188.515 33.35 46.269 95.335 134.8 151.851 229.37 8.697 14.554 27.545 19.3 42.1 10.604 14.555-8.698 19.301-27.546 10.604-42.1-83.705-140.066-179.077-267.033-180.03-268.3a30.699 30.699 0 0 0-49.046 0c-0.772 1.025-78.055 103.883-154.249 226.09-45 72.176-80.931 137.048-106.794 192.813C103.078 545.97 86.534 602.824 86.534 646.4c0 45.365 8.891 89.39 26.428 130.85 16.931 40.032 41.164 75.977 72.025 106.837 30.861 30.86 66.806 55.093 106.836 72.026 41.462 17.536 85.486 26.428 130.852 26.428 39.483 0 78.16-6.79 114.956-20.18 15.933-5.799 24.149-23.415 18.35-39.347-5.797-15.934-23.416-24.148-39.345-18.35z" p-id="1893"></path><path d="M294.522 518.735c-8.854-7.026-21.728-5.543-28.754 3.31-28.324 35.697-43.295 78.697-43.295 124.354 0 39.059 11.256 76.912 32.553 109.468 20.739 31.702 49.856 56.794 84.203 72.562a20.395 20.395 0 0 0 8.526 1.871c7.75 0 15.167-4.426 18.612-11.931 4.716-10.273 0.212-22.423-10.061-27.14-56.435-25.909-92.9-82.758-92.9-144.83 0-36.323 11.904-70.527 34.426-98.91 7.026-8.854 5.543-21.728-3.31-28.754z" p-id="1894"></path></svg>