<?xml version="1.0" standalone="no"?><!DOCTYPE svg PUBLIC "-//W3C//DTD SVG 1.1//EN" "http://www.w3.org/Graphics/SVG/1.1/DTD/svg11.dtd"><svg t="1579317050520" class="icon" viewBox="0 0 1024 1024" version="1.1" xmlns="http://www.w3.org/2000/svg" p-id="917" xmlns:xlink="http://www.w3.org/1999/xlink" width="200" height="200"><defs><style type="text/css"></style></defs><path d="M787.904 386.304l95.232 42.816v158.656l7.104 8.064 54.144 60.608v249.408h55.488V635.52l-7.104-7.872-54.08-60.608V397.312l-14.016-8-136.832-63.296-280.192 89.792v481.344h280.256V386.304zM240.192 254.656l-53.504 14.08v84.48l53.504-10.688V254.656z m501.696 148.352v70.08l-46.336 9.216V415.232c15.104-3.904 30.4-8 46.336-12.224M579.712 628.992v59.584H545.92v-57.344l33.792-2.24m74.752-4.8v64.384h-39.296v-61.888l39.296-2.496m87.424-5.696v70.08h-46.336V621.504l46.336-3.008M579.712 537.472v59.584c-11.52 1.088-22.848 2.176-33.792 3.328v-57.472l33.792-5.44m74.752-12.224v64.32l-39.232 3.904v-61.824c12.736-2.176 25.792-4.288 39.232-6.4m87.424-14.4v70.08l-46.336 4.544V518.4c15.104-2.368 30.4-5.056 46.336-7.552M579.712 445.76v59.648c-11.52 2.24-22.848 4.416-33.792 6.72v-57.472l33.792-8.896m74.752-19.648v64.512c-13.44 2.56-26.496 5.184-39.232 7.744v-61.952l39.232-10.304m-295.104-202.88c-21.568 5.76-42.624 11.264-63.04 16.64v91.52l63.04-12.544V223.232zM138.176 531.52c-15.744 0.96-31.04 1.856-46.016 3.008v78.208h45.952l0.064-81.216m102.016-6.656l-53.504 3.52v84.288h53.504V524.864z m119.168-7.744c-21.568 1.408-42.624 2.88-63.04 4.16v91.456h63.04V517.12zM138.176 406.528l-46.016 7.552v78.272l46.016-4.48V406.528z m102.016-16.704l-53.504 8.768v84.352l53.504-5.248V389.824z m119.168-19.52l-63.04 10.304v91.456l63.04-6.272V370.304zM138.176 281.472l-46.016 12.096v78.336l46.016-9.152v-81.28z m283.904-163.392L603.648 213.12l14.144 8.064v143.36h-55.68V253.056L422.08 180.416v716.8H39.872V240.64l382.208-122.56z m0 0" p-id="918"></path></svg>