<?xml version="1.0" standalone="no"?><!DOCTYPE svg PUBLIC "-//W3C//DTD SVG 1.1//EN" "http://www.w3.org/Graphics/SVG/1.1/DTD/svg11.dtd"><svg t="1579317062291" class="icon" viewBox="0 0 1024 1024" version="1.1" xmlns="http://www.w3.org/2000/svg" p-id="1119" xmlns:xlink="http://www.w3.org/1999/xlink" width="200" height="200"><defs><style type="text/css"></style></defs><path d="M842.048 933.696l-5.44 0L836.608 588.352 511.168 254.656 187.392 586.752l0 346.944-7.04 0c-29.952 0-54.272 24.32-54.272 54.272l0 2.88 770.304 0 0-2.88C896.32 958.016 872.064 933.696 842.048 933.696zM323.072 544l377.792 0 0 383.616L323.072 927.616 323.072 544z" p-id="1120"></path><path d="M511.168 222.144 846.848 566.464 1010.624 566.464 511.168 54.208 11.712 566.464 175.488 566.464Z" p-id="1121"></path><path d="M345.728 566.656l148.096 0 0 338.432-148.096 0 0-338.432Z" p-id="1122"></path><path d="M530.304 566.656l148.032 0 0 338.432-148.032 0 0-338.432Z" p-id="1123"></path></svg>