<?xml version="1.0" standalone="no"?><!DOCTYPE svg PUBLIC "-//W3C//DTD SVG 1.1//EN"
        "http://www.w3.org/Graphics/SVG/1.1/DTD/svg11.dtd">
<svg t="1578980146685" class="icon" viewBox="0 0 1024 1024" version="1.1" xmlns="http://www.w3.org/2000/svg" p-id="2473"
     xmlns:xlink="http://www.w3.org/1999/xlink" width="200" height="200">
    <defs>
        <style type="text/css"></style>
    </defs>
    <path d="M970.752 751.616c-26.624-25.6-59.392-50.176-82.432-66.56-30.72-21.504-63.488-41.984-91.136-56.32-45.056-24.064-64.512-26.624-75.264-26.624-21.504 0-39.936 11.264-55.296 33.28-10.24 14.848-17.408 32.256-25.088 49.152-5.12 11.264-12.8 29.696-18.432 36.864-10.24-2.56-34.816-12.8-76.8-41.472-38.912-26.624-81.408-61.44-113.664-92.672-31.232-32.256-65.536-74.752-92.16-113.664-28.672-41.984-38.912-67.072-41.472-77.312 7.168-5.632 25.088-13.312 36.352-18.432 16.896-7.168 34.304-14.848 48.64-25.088 22.016-15.36 33.28-33.792 33.28-55.296 0-10.752-2.56-30.208-26.624-75.264-14.848-28.16-34.816-60.416-56.32-91.648-15.872-23.04-40.96-56.32-66.56-82.944-29.184-30.208-51.2-43.52-71.68-43.52C146.944 3.072 88.576 76.8 71.68 98.816 50.176 128 0 202.24 0 272.384c0 65.536 43.52 150.528 80.384 209.92 49.152 79.872 116.736 165.888 190.976 241.664l24.064 24.064 0.512 0.512c75.776 74.24 161.792 142.336 241.152 191.488 59.392 36.864 143.872 80.384 209.408 80.384 70.144 0 144.384-50.176 173.056-71.68 22.528-16.896 95.232-75.776 95.232-125.952-0.512-19.968-14.336-42.496-44.032-71.168z m-35.84 101.888c-13.824 16.384-33.28 33.792-54.784 49.664-48.64 36.352-98.816 57.856-134.144 57.856-39.424 0-104.448-26.112-177.664-71.68-75.776-47.104-157.696-112.128-230.4-183.296l-23.552-23.552C242.688 609.28 177.664 527.36 131.072 451.072 86.016 377.344 59.904 312.32 59.904 272.384c0-35.328 21.504-85.504 57.344-134.656 15.872-21.504 33.28-40.96 49.664-55.296 15.36-13.312 25.088-17.92 29.184-19.456 10.752 5.12 45.056 35.328 93.184 105.984 18.944 27.648 36.352 56.32 49.152 80.384 15.872 30.72 18.944 43.008 18.944 46.08-0.512 1.024-3.584 4.608-11.776 9.728-9.216 5.632-22.016 11.264-33.792 16.384-14.848 6.656-30.72 13.312-43.008 21.504-20.48 13.824-30.72 30.208-30.208 49.664 0 9.216 1.024 37.376 52.736 113.664 28.672 41.984 65.536 87.552 99.328 122.368l0.512 0.512c34.304 33.792 79.872 70.656 121.856 99.328 75.776 51.712 103.936 52.736 113.152 52.736h1.024c18.944 0 35.328-10.24 48.64-30.72 8.192-12.288 14.848-28.16 21.504-43.008 5.12-12.288 10.752-24.576 16.384-34.304 5.12-8.704 8.192-11.264 9.216-11.776 3.072 0.512 15.36 3.072 46.08 19.456 24.064 12.8 52.736 30.208 80.384 49.152 70.144 48.64 100.352 82.944 105.472 93.696-2.048 4.608-7.168 14.336-19.968 29.696z"
          fill="#040000" p-id="2474"></path>
    <path d="M503.808 360.96c2.048 11.776 13.312 19.968 25.6 17.92 32.768-5.632 66.048 1.024 93.184 18.944 26.624 17.408 44.032 44.032 49.664 74.752 2.048 10.752 11.264 18.432 21.504 18.432 1.024 0 2.56 0 4.096-0.512 11.776-2.048 19.968-13.312 17.92-25.6-7.68-42.496-31.744-79.36-68.608-103.936-36.352-24.064-80.896-33.28-124.928-25.088-12.288 1.536-20.48 13.312-18.432 25.088zM708.096 270.336c51.712 34.304 85.504 85.504 96.256 144.896 2.048 10.752 11.264 18.432 21.504 18.432 1.024 0 2.56 0 3.584-0.512 11.776-2.048 19.968-13.312 17.92-25.6-12.288-71.168-53.248-133.12-115.2-174.08-61.44-40.448-136.192-55.808-210.432-42.496-11.776 2.048-19.968 13.312-17.92 25.6 2.048 11.776 13.312 19.968 25.6 17.92 62.976-11.264 126.464 1.536 178.688 35.84z"
          fill="#040000" p-id="2475"></path>
    <path d="M1023.488 391.168c-19.968-113.152-84.992-211.456-182.784-276.48C742.912 50.176 624.128 26.112 505.344 47.104c-11.776 2.048-19.968 13.312-17.92 25.6 2.048 11.776 13.312 19.968 25.6 17.92 107.52-18.944 215.04 2.56 303.616 61.44 88.064 58.368 145.92 145.92 163.84 247.296 2.048 10.752 11.264 18.432 21.504 18.432 1.024 0 2.56 0 3.584-0.512 12.288-2.56 19.968-13.824 17.92-26.112z"
          fill="#040000" p-id="2476"></path>
</svg>
