<?xml version="1.0" standalone="no"?><!DOCTYPE svg PUBLIC "-//W3C//DTD SVG 1.1//EN" "http://www.w3.org/Graphics/SVG/1.1/DTD/svg11.dtd"><svg t="1580700234987" class="icon" viewBox="0 0 1024 1024" version="1.1" xmlns="http://www.w3.org/2000/svg" p-id="4517" xmlns:xlink="http://www.w3.org/1999/xlink" width="200" height="200"><defs><style type="text/css"></style></defs><path d="M525.824 895.488H316.416c-17.92 0-32.256 14.336-32.256 32.256s14.336 32.256 32.256 32.256h209.408c17.92 0 32.256-14.336 32.256-32.256 0.512-17.92-14.336-32.256-32.256-32.256z" fill="#666666" p-id="4518"></path><path d="M741.376 376.832c-46.592-117.76-156.672-203.776-287.744-216.064V94.72c0-17.92-14.336-32.256-32.256-32.256S389.12 76.8 389.12 94.72v91.648c0 1.024 0.512 1.536 0.512 2.56s-0.512 1.536-0.512 2.56c0 17.92 14.336 32.256 32.256 32.256 110.592 0 206.336 64.512 251.904 158.208-28.672 5.632-55.808 15.872-80.896 29.184 0-23.04-18.944-41.984-41.984-41.984-23.04 0-41.984 18.944-41.984 41.984 0 18.432 11.776 33.792 27.648 39.424-59.904 53.76-97.28 131.584-97.28 218.112 0 34.816 6.144 68.096 17.408 99.328H141.824V503.296c0-94.208 47.616-181.76 126.464-233.472 14.848-9.728 18.944-30.208 9.216-45.056-9.728-14.848-30.208-18.944-45.056-9.216-96.768 64-155.136 172.032-155.136 287.744V768H32.256c-17.92 0-32.256 14.336-32.256 32.256s14.336 32.256 32.256 32.256h456.704c52.736 77.312 141.312 128.512 242.176 128.512 161.792 0 292.864-131.072 292.864-292.864 0-157.696-125.44-286.208-282.624-291.328z m-38.4 1.024h-1.536 1.536z m28.16-1.536c-5.12 0-9.728 0-14.848 0.512 5.12-0.512 10.24-0.512 14.848-0.512z m-180.224 62.464c-1.024 0.512-1.536 1.536-2.56 2.048 0.512-0.512 1.536-1.536 2.56-2.048z m27.136-18.944c-1.024 0.512-2.048 1.536-3.072 2.048 1.024-1.024 2.048-1.536 3.072-2.048z m-13.824 8.704c-1.024 1.024-2.048 1.536-3.072 2.56 1.024-1.024 2.048-1.536 3.072-2.56z m-86.016 387.072l1.536 3.072-1.536-3.072z m-15.36-30.72c0.512 0.512 0.512 1.024 1.024 2.048-0.512-1.024-1.024-1.536-1.024-2.048z m7.168 15.36c0.512 1.024 1.024 2.56 2.048 3.584-1.024-1.536-1.536-2.56-2.048-3.584z m261.12 98.304c-126.464 0-229.376-102.912-229.376-229.376 0-126.464 102.912-229.376 229.376-229.376 126.464 0 229.376 102.912 229.376 229.376 0.512 126.464-102.4 229.376-229.376 229.376z" fill="#666666" p-id="4519"></path><path d="M901.12 566.784c-10.24-10.24-27.136-10.24-37.888 0L721.92 708.608l-93.184-93.184c-10.24-10.24-27.136-10.24-37.888 0-10.24 10.24-10.24 27.136 0 37.888l112.128 112.128c5.12 5.12 11.776 7.68 18.944 7.68 6.656 0 13.824-2.56 18.944-7.68l160.256-160.256c10.24-11.264 10.24-28.16 0-38.4z" fill="#666666" p-id="4520"></path></svg>