<?xml version="1.0" standalone="no"?><!DOCTYPE svg PUBLIC "-//W3C//DTD SVG 1.1//EN" "http://www.w3.org/Graphics/SVG/1.1/DTD/svg11.dtd"><svg t="1580700247039" class="icon" viewBox="0 0 1024 1024" version="1.1" xmlns="http://www.w3.org/2000/svg" p-id="4638" xmlns:xlink="http://www.w3.org/1999/xlink" width="200" height="200"><defs><style type="text/css"></style></defs><path d="M525.824 895.488H316.416c-17.92 0-32.256 14.336-32.256 32.256s14.336 32.256 32.256 32.256h209.408c17.92 0 32.256-14.336 32.256-32.256 0.512-17.92-14.336-32.256-32.256-32.256z" fill="#666666" p-id="4639"></path><path d="M741.376 376.832c-46.592-117.76-156.672-203.776-287.744-216.064V94.72c0-17.92-14.336-32.256-32.256-32.256S389.12 76.8 389.12 94.72v91.648c0 1.024 0.512 1.536 0.512 2.56s-0.512 1.536-0.512 2.56c0 17.92 14.336 32.256 32.256 32.256 110.592 0 206.336 64.512 251.904 158.208-28.672 5.632-55.808 15.872-80.896 29.184 0-23.04-18.944-41.984-41.984-41.984-23.04 0-41.984 18.944-41.984 41.984 0 18.432 11.776 33.792 27.648 39.424-59.904 53.76-97.28 131.072-97.28 218.112 0 34.816 6.144 68.096 17.408 99.328H141.824V503.296c0-94.208 47.616-181.76 126.464-233.472 14.848-9.728 18.944-30.208 9.216-45.056-9.728-14.848-30.208-18.944-45.056-9.216-96.768 64-155.136 172.032-155.136 287.744V768H32.256c-17.92 0-32.256 14.336-32.256 32.256s14.336 32.256 32.256 32.256h456.704c52.736 77.824 141.312 128.512 242.176 128.512 161.792 0 292.864-131.072 292.864-292.864 0-157.696-125.44-286.208-282.624-291.328z m-190.976 62.464c-0.512 0.512-1.536 1.024-2.048 1.536 0.512-0.512 1.536-1.024 2.048-1.536z m27.648-19.456c-1.024 0.512-1.536 1.024-2.56 1.536 1.024-0.512 1.536-1.024 2.56-1.536z m-13.824 9.216c-1.024 0.512-2.048 1.536-2.56 2.048 0.512-1.024 1.536-1.536 2.56-2.048z m-86.016 386.56c0.512 1.024 1.536 2.048 2.048 3.584-1.024-1.536-1.536-2.56-2.048-3.584z m-15.36-30.72c0.512 0.512 0.512 1.536 1.024 2.048-0.512-0.512-1.024-1.536-1.024-2.048z m6.656 14.848c0.512 1.536 1.536 2.56 2.048 4.096-0.512-1.024-1.024-2.56-2.048-4.096z m261.632 98.816c-126.464 0-229.376-102.912-229.376-229.376s102.912-229.376 229.376-229.376c126.464 0 229.376 102.912 229.376 229.376s-102.4 229.376-229.376 229.376z" fill="#666666" p-id="4640"></path><path d="M844.8 642.56h-226.816c-14.848 0-26.624 11.776-26.624 26.624 0 14.848 11.776 26.624 26.624 26.624H844.8c14.848 0 26.624-11.776 26.624-26.624 0-14.848-11.776-26.624-26.624-26.624z" fill="#666666" p-id="4641"></path></svg>